<svg version="1" xmlns="http://www.w3.org/2000/svg" width="933.333" height="933.333" viewBox="0 0 700.000000 700.000000"><path d="M558.8 87.1c-6 .9-10.5 3.2-41.8 21.4-14 8.1-26.8 15.6-28.5 16.5-9.1 5.2-14.2 8.1-15.5 9-.8.6-2.1 1.3-2.9 1.7-.8.3-6.4 3.6-12.5 7.1-6.1 3.6-12.4 7.2-14.1 8-2.5 1.3-11.2 1.6-60.5 1.8-63.1.2-62.7.1-75.5 6.4-8.7 4.2-42.4 25.6-46.3 29.3-4.5 4.4-7.1 8.8-8.8 15-1.9 7.3-2 139.4 0 147.8 6.2 26.7 37 40 60.6 26.2 9.6-5.6 17.7-16.9 19.6-27.3.4-2.5.8-25.7.8-51.5l.1-47 97-.2c107.5-.3 104.7-.4 118.2 6.2 8 4 16.7 11.4 21.3 18.1 8.5 12.6 10.1 19.2 10.5 42.9.2 10.4.4 19.1.4 19.2.1.1 7.2-3.9 15.9-8.9 8.6-5 20-11.6 25.2-14.6 5.2-3 10.9-6.2 12.5-7.2 1.7-1 7.1-4.1 12-6.9 5-2.8 9.7-5.6 10.5-6.1.8-.5 3.1-1.8 5-2.9 10.2-5.5 17.1-17.2 17.1-29 0-8.8-.9-10.9-16.3-37.7-6.4-10.9-12.5-21.5-13.5-23.4-1.1-1.9-3.4-5.8-5-8.6-1.7-2.7-4.1-7-5.5-9.5-1.4-2.4-7.3-12.6-13.1-22.7-5.9-10.1-10.7-18.5-10.7-18.7 0-.1-1.8-3.3-4.1-7-2.2-3.7-4.9-8.3-6-10.1-1-1.9-2.9-5.1-4-7.2-1.2-2-3.7-6.5-5.6-10-8.5-15.3-21.5-22.5-36.5-20.1z"/><path d="M213.7 219.3c-9.6 5.5-65.3 39.2-66.5 40.1-14.9 11.7-24.4 27-27 43.7-.4 3-.8 17.3-.8 31.9l.1 26.5-9 5.4c-4.9 3-11.1 6.6-13.7 8-2.6 1.4-12.1 6.8-21 12-44.3 25.6-44.9 26-49.6 32.8-5.1 7.2-6.8 18-4.3 27.1.7 2.3 6.1 12.8 12.2 23.2 6 10.5 11.8 20.5 12.8 22.3 1 1.7 5.9 10.2 10.8 18.7 21.2 36.7 24.1 41.7 26.5 46 1.4 2.5 7.1 12.3 12.7 21.9 5.5 9.5 10.1 17.7 10.1 18.1 0 .4 2.3 3 5.1 5.9 9.4 9.6 21.5 12.8 33.8 8.9 2.8-.9 14.8-7.6 44.6-24.8 24.8-14.3 56.6-32.7 59.3-34.1 1.8-1.1 4.5-2.7 5.9-3.6 2.3-1.6 9-1.7 77.2-1.8 80.5-.1 80.9-.1 92.8-5.5 21.9-9.9 36.8-30.2 38.9-52.8.5-5.6 1-7.2 2.3-7.3.9 0 6.1-.2 11.6-.4 10.5-.3 12.2-.6 14.3-1.8.6-.5 1.2-.5 1.2-.2 0 1 9.4-5.7 12.4-8.9 1.6-1.7 4-5.6 5.5-8.6l2.6-5.5.1-36.3c.1-19.9.3-36.4.5-36.6.2-.2 3.8-.6 7.9-.9 11-.8 17.4-4.8 22.3-14.1 2.1-4 2.1-5.2 2.2-35.1v-31l-2.9-5.2c-3.4-6.2-9.6-10.9-16.2-12.3-3.2-.7-32.4-.9-83.4-.8l-78.5.3-.1 32c-.1 34.8-.4 38.6-3.5 47.7-7.5 22.3-23.5 38.9-45.4 47.1-17.2 6.4-38 5.8-55.1-1.8-22.4-9.9-39.5-32-43.2-56.1-.5-2.9-.9-34.6-.9-70.4 0-35.8-.2-65.2-.4-65.5-.3-.2-2.2.6-4.2 1.8z"/></svg>