<?xml version="1.0" encoding="utf-8"?>
<!-- Generator: Adobe Illustrator 24.0.1, SVG Export Plug-In . SVG Version: 6.00 Build 0)  -->
<svg version="1.1" id="Layer_1" xmlns="http://www.w3.org/2000/svg" xmlns:xlink="http://www.w3.org/1999/xlink" x="0px" y="0px"
	 viewBox="0 0 680 680" style="enable-background:new 0 0 680 680;" xml:space="preserve">
<style type="text/css">
	.st0{fill:#009F5E;}
	.st1{fill:#DE7BAF;}
</style>
<path class="st0" d="M244,332V205.7c0-11,5.6-21.3,15-27.1l33.5-20.9c10.2-6.3,21.9-9.7,33.9-9.7h102.2L532,88.3
	c15.3-8.8,34.9-3.6,43.7,11.7l0,0l80,138.6c8.8,15.3,3.6,34.9-11.7,43.7l-80,46.2V300c0-30.9-25.1-56-56-56H324v88
	c0,22.1-17.9,40-40,40S244,354.1,244,332z"/>
<path class="st1" d="M24.3,441.4c-8.9-15.2-3.7-34.8,11.6-43.6c0,0,0.1,0,0.1-0.1l80-46.2v-47.3c0-22.5,11.8-43.3,31.1-54.8l64.9-39
	V332c0,39.8,32.2,72,72,72s72-32.2,72-72v-56h152c13.2,0,24,10.7,24,23.9v0.1v48c0,13.2-10.7,24-23.9,24H508h-8v64
	c0,17.7-14.3,32-32,32h-16c0,35.3-28.7,64-64,64H251.4L148,591.7c-15.3,8.8-34.8,3.6-43.7-11.7L24.3,441.4z"/>
</svg>
